<svg width="20" height="25" viewBox="0 0 20 25" fill="none" xmlns="http://www.w3.org/2000/svg">
<path fill-rule="evenodd" clip-rule="evenodd" d="M6.55435 24.1019C2.96754 24.0812 0.000599046 16.7592 0.000599046 13.0303C0.000599046 6.9391 4.56995 5.6056 6.33095 5.6056C7.12456 5.6056 7.97197 5.91723 8.7194 6.19303C9.24207 6.38541 9.78263 6.584 10.0833 6.584C10.2632 6.584 10.6873 6.41506 11.0617 6.26684C11.8601 5.94896 12.8537 5.55389 14.0107 5.55389C14.0128 5.55389 14.0155 5.55389 14.0176 5.55389C14.8815 5.55389 17.501 5.7435 19.0758 8.10854L19.4447 8.66289L18.9138 9.0635C18.1553 9.6358 16.7715 10.6797 16.7715 12.7476C16.7715 15.1968 18.3387 16.1387 19.0917 16.5917C19.424 16.7916 19.7681 16.9978 19.7681 17.4487C19.7681 17.7432 17.4182 24.0653 14.0059 24.0653C13.1709 24.0653 12.5806 23.8144 12.06 23.593C11.5333 23.3689 11.0789 23.1759 10.328 23.1759C9.94738 23.1759 9.46609 23.3558 8.95654 23.5469C8.26023 23.8067 7.47208 24.1019 6.5778 24.1019L6.55435 24.1019Z" fill="white"/>
<path fill-rule="evenodd" clip-rule="evenodd" d="M14.3694 0.000956657C14.4576 3.20414 12.1836 5.42635 9.91238 5.28698C9.5381 2.73073 12.1834 0.000956657 14.3694 0.000956657Z" fill="white"/>
</svg>
