<svg width="14" height="18" viewBox="0 0 14 18" fill="none" xmlns="http://www.w3.org/2000/svg">
<path d="M13.7189 12.6861C13.1254 11.9874 11.9696 10.9558 11.9696 7.52855C11.9696 4.9664 10.2828 2.90337 7.9713 2.37098V1.67221C7.9713 1.10654 7.53398 0.607422 7.00296 0.607422C6.4407 0.607422 6.00338 1.10654 6.00338 1.67221V2.37098C3.69186 2.90337 2.00507 4.9664 2.00507 7.52855C2.00507 10.9558 0.849313 11.9874 0.255814 12.6861C0.068393 12.8858 -0.0253174 13.152 0.00591938 13.3849C0.00591938 13.9506 0.380761 14.4497 1.0055 14.4497H12.9692C13.5939 14.4497 13.9688 13.9506 14 13.3849C14 13.152 13.9063 12.8858 13.7189 12.6861ZM2.09878 12.8525C2.75476 11.9541 3.4732 10.3902 3.50444 7.56182C3.50444 7.56182 3.50444 7.56182 3.50444 7.52855C3.50444 5.4988 5.06628 3.80179 7.00296 3.80179C8.9084 3.80179 10.5015 5.4988 10.5015 7.52855C10.5015 7.56182 10.4702 7.56182 10.4702 7.56182C10.5015 10.3902 11.2199 11.9541 11.8759 12.8525H2.09878ZM7.00296 17.644C8.09625 17.644 8.97088 16.7124 8.97088 15.5145H5.00381C5.00381 16.7124 5.87844 17.644 7.00296 17.644Z" fill="#7B7B7B"/>
</svg>
