<svg width="15" height="17" viewBox="0 0 15 17" fill="none" xmlns="http://www.w3.org/2000/svg">
<path d="M4.91406 9.5625C5.11328 9.5625 5.3125 9.39648 5.3125 9.16406V7.83594C5.3125 7.63672 5.11328 7.4375 4.91406 7.4375H3.58594C3.35352 7.4375 3.1875 7.63672 3.1875 7.83594V9.16406C3.1875 9.39648 3.35352 9.5625 3.58594 9.5625H4.91406ZM8.5 9.16406V7.83594C8.5 7.63672 8.30078 7.4375 8.10156 7.4375H6.77344C6.54102 7.4375 6.375 7.63672 6.375 7.83594V9.16406C6.375 9.39648 6.54102 9.5625 6.77344 9.5625H8.10156C8.30078 9.5625 8.5 9.39648 8.5 9.16406ZM11.6875 9.16406V7.83594C11.6875 7.63672 11.4883 7.4375 11.2891 7.4375H9.96094C9.72852 7.4375 9.5625 7.63672 9.5625 7.83594V9.16406C9.5625 9.39648 9.72852 9.5625 9.96094 9.5625H11.2891C11.4883 9.5625 11.6875 9.39648 11.6875 9.16406ZM8.5 12.3516V11.0234C8.5 10.8242 8.30078 10.625 8.10156 10.625H6.77344C6.54102 10.625 6.375 10.8242 6.375 11.0234V12.3516C6.375 12.584 6.54102 12.75 6.77344 12.75H8.10156C8.30078 12.75 8.5 12.584 8.5 12.3516ZM5.3125 12.3516V11.0234C5.3125 10.8242 5.11328 10.625 4.91406 10.625H3.58594C3.35352 10.625 3.1875 10.8242 3.1875 11.0234V12.3516C3.1875 12.584 3.35352 12.75 3.58594 12.75H4.91406C5.11328 12.75 5.3125 12.584 5.3125 12.3516ZM11.6875 12.3516V11.0234C11.6875 10.8242 11.4883 10.625 11.2891 10.625H9.96094C9.72852 10.625 9.5625 10.8242 9.5625 11.0234V12.3516C9.5625 12.584 9.72852 12.75 9.96094 12.75H11.2891C11.4883 12.75 11.6875 12.584 11.6875 12.3516ZM14.875 3.71875C14.875 2.85547 14.1445 2.125 13.2812 2.125H11.6875V0.398438C11.6875 0.199219 11.4883 0 11.2891 0H9.96094C9.72852 0 9.5625 0.199219 9.5625 0.398438V2.125H5.3125V0.398438C5.3125 0.199219 5.11328 0 4.91406 0H3.58594C3.35352 0 3.1875 0.199219 3.1875 0.398438V2.125H1.59375C0.697266 2.125 0 2.85547 0 3.71875V15.4062C0 16.3027 0.697266 17 1.59375 17H13.2812C14.1445 17 14.875 16.3027 14.875 15.4062V3.71875ZM13.2812 15.207C13.2812 15.3398 13.1816 15.4062 13.082 15.4062H1.79297C1.66016 15.4062 1.59375 15.3398 1.59375 15.207V5.3125H13.2812V15.207Z" fill="#454545"/>
</svg>
