<svg width="44" height="44" viewBox="0 0 44 44" fill="none" xmlns="http://www.w3.org/2000/svg">
<path fill-rule="evenodd" clip-rule="evenodd" d="M21.7451 43.4878C9.80214 43.4878 -9.33795e-05 33.6881 -9.33795e-05 21.7451C-9.33795e-05 9.80213 9.80214 0.00235388 21.7451 0.00235388C33.6881 0.00235388 43.4903 9.80213 43.4903 21.7451C43.4903 33.6881 33.6881 43.4878 21.7451 43.4878Z" fill="#DEF9F2"/>
<path fill-rule="evenodd" clip-rule="evenodd" d="M19.272 22.7932C19.272 22.5706 19.0914 22.3902 18.8686 22.3902H17.4608C17.2382 22.3902 17.0576 22.5706 17.0576 22.7932V24.2005C17.0576 24.4233 17.2382 24.6037 17.4608 24.6037H18.8686C19.0914 24.6037 19.272 24.4234 19.272 24.2005V22.7932Z" fill="#00CC99"/>
<path fill-rule="evenodd" clip-rule="evenodd" d="M22.7839 22.7932C22.7839 22.5706 22.6037 22.3902 22.3817 22.3902H20.9765C20.7544 22.3902 20.5741 22.5706 20.5741 22.7932V24.2005C20.5741 24.4233 20.7544 24.6037 20.9765 24.6037H22.3817C22.6037 24.6037 22.7839 24.4234 22.7839 24.2005V22.7932Z" fill="#00CC99"/>
<path fill-rule="evenodd" clip-rule="evenodd" d="M26.2984 22.7932C26.2984 22.5706 26.1182 22.3902 25.8961 22.3902H24.4909C24.2685 22.3902 24.0882 22.5706 24.0882 22.7932V24.2005C24.0882 24.4233 24.2685 24.6037 24.4909 24.6037H25.8961C26.1182 24.6037 26.2984 24.4234 26.2984 24.2005V22.7932Z" fill="#00CC99"/>
<path fill-rule="evenodd" clip-rule="evenodd" d="M19.272 26.3067C19.272 26.0837 19.0914 25.9036 18.8686 25.9036H17.4608C17.2382 25.9036 17.0576 26.0837 17.0576 26.3067V27.7137C17.0576 27.9365 17.2382 28.1169 17.4608 28.1169H18.8686C19.0914 28.1169 19.272 27.9364 19.272 27.7137V26.3067Z" fill="#00CC99"/>
<path fill-rule="evenodd" clip-rule="evenodd" d="M22.7839 26.3067C22.7839 26.0837 22.6037 25.9036 22.3817 25.9036H20.9765C20.7544 25.9036 20.5741 26.0837 20.5741 26.3067V27.7137C20.5741 27.9365 20.7544 28.1169 20.9765 28.1169H22.3817C22.6037 28.1169 22.7839 27.9364 22.7839 27.7137V26.3067Z" fill="#00CC99"/>
<path fill-rule="evenodd" clip-rule="evenodd" d="M26.2984 26.3067C26.2984 26.0837 26.1182 25.9036 25.8963 25.9036H24.4909C24.2685 25.9036 24.0882 26.0837 24.0882 26.3067V27.7137C24.0882 27.9365 24.2685 28.1169 24.4909 28.1169H25.8963C26.1182 28.1169 26.2984 27.9364 26.2984 27.7137V26.3067Z" fill="#00CC99"/>
<path fill-rule="evenodd" clip-rule="evenodd" d="M28.2958 28.3665C28.2958 28.7462 27.9879 29.0543 27.6079 29.0543H15.7161C15.3362 29.0543 15.0283 28.7462 15.0283 28.3665V21.8665C15.0283 21.4866 15.3361 21.1785 15.7161 21.1785H27.6079C27.9878 21.1785 28.2957 21.4866 28.2957 21.8665L28.2958 28.3665H28.2958ZM28.8125 14.977V17.1242C28.8125 18.0947 28.0251 18.8768 27.0548 18.8768H25.9459C24.9755 18.8768 24.1777 18.0947 24.1777 17.1242V14.9693H19.18V17.1242C19.18 18.0947 18.3823 18.8768 17.4119 18.8768H16.3029C15.3326 18.8768 14.5453 18.0947 14.5453 17.1242V14.977C13.6972 15.0026 13.0003 15.7043 13.0003 16.5669V29.1506C13.0003 30.0294 13.7126 30.7511 14.5913 30.7511H28.7664C29.6438 30.7511 30.3574 30.0279 30.3574 29.1506V16.5669C30.3574 15.7043 29.6606 15.0026 28.8125 14.977H28.8125Z" fill="#00CC99"/>
<path fill-rule="evenodd" clip-rule="evenodd" d="M16.301 17.7233H17.3974C17.7302 17.7233 18.0001 17.4538 18.0001 17.1209V13.6009C18.0001 13.268 17.7302 12.9983 17.3974 12.9983H16.301C15.9681 12.9983 15.6983 13.268 15.6983 13.6009V17.1209C15.6983 17.4538 15.9681 17.7233 16.301 17.7233Z" fill="#00CC99"/>
<path fill-rule="evenodd" clip-rule="evenodd" d="M25.9302 17.7233H27.0265C27.3592 17.7233 27.629 17.4538 27.629 17.1209V13.6009C27.629 13.268 27.3592 12.9983 27.0265 12.9983H25.9302C25.5975 12.9983 25.3277 13.268 25.3277 13.6009V17.1209C25.3277 17.4538 25.5975 17.7233 25.9302 17.7233Z" fill="#00CC99"/>
</svg>
