<svg width="17" height="13" viewBox="0 0 17 13" fill="none" xmlns="http://www.w3.org/2000/svg">
<path d="M2.7625 0C1.24443 0 0 1.26883 0 2.81667V10.1833C0 11.7312 1.24443 13 2.7625 13H9.9875C11.5056 13 12.75 11.7312 12.75 10.1833V9.5985L16.0346 11.6077C16.1314 11.6669 16.2418 11.6988 16.3546 11.7002C16.4674 11.7016 16.5786 11.6725 16.6768 11.6158C16.7749 11.5591 16.8566 11.4768 16.9133 11.3774C16.9701 11.278 17 11.165 17 11.05V1.95C17 1.86298 16.9829 1.77684 16.9497 1.69669C16.9165 1.61653 16.8678 1.544 16.8066 1.48338C16.7453 1.42276 16.6728 1.3753 16.5932 1.3438C16.5137 1.3123 16.4287 1.2974 16.3434 1.3C16.2344 1.30333 16.1281 1.33509 16.0346 1.39225L12.75 3.4015V2.81667C12.75 1.26883 11.5056 0 9.9875 0H2.7625ZM2.7625 1.3H9.9875C10.8163 1.3 11.475 1.97164 11.475 2.81667V4.52969V8.44238V10.1833C11.475 11.0284 10.8163 11.7 9.9875 11.7H2.7625C1.93372 11.7 1.275 11.0284 1.275 10.1833V2.81667C1.275 1.97164 1.93372 1.3 2.7625 1.3ZM15.725 3.0985V9.9015L12.75 8.08184V4.91816L15.725 3.0985Z" fill="white"/>
</svg>
