<svg width="16" height="13" viewBox="0 0 16 13" fill="none" xmlns="http://www.w3.org/2000/svg">
<path d="M14.5 0.742188H1.5C0.65625 0.742188 0 1.43117 0 2.24542V11.2648C0 12.1104 0.65625 12.768 1.5 12.768H14.5C15.3125 12.768 16 12.1104 16 11.2648V2.24542C16 1.43117 15.3125 0.742188 14.5 0.742188ZM14.5 2.24542V3.52943C13.7812 4.12446 12.6562 5.00134 10.2812 6.88038C9.75 7.28751 8.71875 8.28966 8 8.25834C7.25 8.28966 6.21875 7.28751 5.6875 6.88038C3.3125 5.00134 2.1875 4.12446 1.5 3.52943V2.24542H14.5ZM1.5 11.2648V5.4711C2.1875 6.03481 3.21875 6.84906 4.75 8.07044C5.4375 8.60283 6.65625 9.79289 8 9.76157C9.3125 9.79289 10.5 8.60283 11.2188 8.07044C12.75 6.84906 13.7812 6.03481 14.5 5.4711V11.2648H1.5Z" fill="#7B7B7B"/>
</svg>
