<svg width="22" height="23" viewBox="0 0 22 23" fill="none" xmlns="http://www.w3.org/2000/svg">
<path fill-rule="evenodd" clip-rule="evenodd" d="M13.0952 11.2146L1.83186 22.0591C1.30442 21.6986 0.991263 21.0991 0.996798 20.4604V1.96878C0.991263 1.33005 1.30441 0.730547 1.83186 0.370135L13.0952 11.2146Z" fill="#2196F3"/>
<path fill-rule="evenodd" clip-rule="evenodd" d="M17.0331 7.42727L13.0942 11.2141L1.83735 0.372824C1.87977 0.339945 1.92395 0.309362 1.96965 0.281206C2.56459 -0.0794389 3.30771 -0.0910805 3.91367 0.250665L17.0331 7.42727Z" fill="#4CAF50"/>
<path fill-rule="evenodd" clip-rule="evenodd" d="M21.811 11.2138C21.8184 11.935 21.4266 12.6012 20.7928 12.9453L17.0354 15.0026L13.0948 11.2138L17.0354 7.42499L20.7928 9.48236C21.4266 9.82638 21.8184 10.4926 21.811 11.2138Z" fill="#FFC107"/>
<path fill-rule="evenodd" clip-rule="evenodd" d="M17.0331 15.0013L3.91367 22.1797C3.30637 22.5163 2.56607 22.5046 1.96965 22.1492C1.92395 22.121 1.87976 22.0904 1.83735 22.0575L13.0942 11.2135L17.0331 15.0013Z" fill="#F44336"/>
</svg>
