<svg width="13" height="13" viewBox="0 0 13 13" fill="none" xmlns="http://www.w3.org/2000/svg">
<path d="M9.35888 0.000589449C9.21347 0.00691075 9.07482 0.0637791 8.96685 0.161386C8.85888 0.258993 8.78836 0.391219 8.76745 0.535257L8.22973 3.7628H5.12182L5.62536 0.740336C5.6421 0.647697 5.63771 0.552471 5.6125 0.461769C5.58729 0.371066 5.54192 0.287229 5.47978 0.216516C5.41763 0.145802 5.34032 0.0900398 5.2536 0.0533907C5.16689 0.0167415 5.07302 0.000152429 4.97899 0.00486191C4.83507 0.0121069 4.69807 0.0688596 4.59118 0.165514C4.4843 0.262168 4.41409 0.392785 4.39245 0.535257L3.85473 3.7628H1.2589C1.17608 3.76163 1.09385 3.77693 1.017 3.80781C0.940145 3.83869 0.870194 3.88454 0.811213 3.9427C0.752232 4.00085 0.705397 4.07014 0.673429 4.14655C0.641462 4.22297 0.625 4.30497 0.625 4.3878C0.625 4.47062 0.641462 4.55263 0.673429 4.62904C0.705397 4.70545 0.752232 4.77474 0.811213 4.8329C0.870194 4.89105 0.940145 4.9369 1.017 4.96778C1.09385 4.99867 1.17608 5.01397 1.2589 5.0128H3.64599L3.22973 7.5128H0.633902C0.551082 7.51163 0.468855 7.52693 0.392 7.55781C0.315145 7.58869 0.245194 7.63454 0.186213 7.6927C0.127232 7.75085 0.0803966 7.82014 0.0484293 7.89655C0.016462 7.97297 0 8.05497 0 8.1378C0 8.22062 0.016462 8.30263 0.0484293 8.37904C0.0803966 8.45545 0.127232 8.52474 0.186213 8.5829C0.245194 8.64105 0.315145 8.6869 0.392 8.71778C0.468855 8.74867 0.551082 8.76397 0.633902 8.7628H3.02099L2.51745 11.7853C2.50208 11.867 2.50318 11.951 2.5207 12.0323C2.53821 12.1137 2.57178 12.1907 2.61945 12.2589C2.66711 12.327 2.7279 12.385 2.79826 12.4294C2.86862 12.4738 2.94713 12.5037 3.02919 12.5173C3.11125 12.531 3.19521 12.5281 3.27615 12.5089C3.35708 12.4897 3.43337 12.4545 3.50054 12.4054C3.56771 12.3563 3.6244 12.2943 3.6673 12.2231C3.71019 12.1518 3.73843 12.0727 3.75036 11.9903L4.28808 8.7628H7.39599L6.89245 11.7853C6.87708 11.867 6.87818 11.951 6.8957 12.0323C6.91321 12.1137 6.94678 12.1907 6.99444 12.2589C7.04211 12.327 7.1029 12.385 7.17326 12.4294C7.24362 12.4738 7.32213 12.5037 7.40419 12.5173C7.48625 12.531 7.57021 12.5281 7.65115 12.5089C7.73208 12.4897 7.80837 12.4545 7.87554 12.4054C7.94271 12.3563 7.9994 12.2943 8.0423 12.2231C8.08519 12.1518 8.11343 12.0727 8.12536 11.9903L8.66308 8.7628H11.2589C11.3417 8.76397 11.4239 8.74867 11.5008 8.71778C11.5777 8.6869 11.6476 8.64105 11.7066 8.5829C11.7656 8.52474 11.8124 8.45545 11.8444 8.37904C11.8763 8.30263 11.8928 8.22062 11.8928 8.1378C11.8928 8.05497 11.8763 7.97297 11.8444 7.89655C11.8124 7.82014 11.7656 7.75085 11.7066 7.6927C11.6476 7.63454 11.5777 7.58869 11.5008 7.55781C11.4239 7.52693 11.3417 7.51163 11.2589 7.5128H8.87182L9.28808 5.0128H11.8839C11.9667 5.01397 12.0489 4.99867 12.1258 4.96778C12.2027 4.9369 12.2726 4.89105 12.3316 4.8329C12.3906 4.77474 12.4374 4.70545 12.4694 4.62904C12.5013 4.55263 12.5178 4.47062 12.5178 4.3878C12.5178 4.30497 12.5013 4.22297 12.4694 4.14655C12.4374 4.07014 12.3906 4.00085 12.3316 3.9427C12.2726 3.88454 12.2027 3.83869 12.1258 3.80781C12.0489 3.77693 11.9667 3.76163 11.8839 3.7628H9.49682L10.0004 0.740336C10.0177 0.647809 10.014 0.552556 9.98935 0.461687C9.96474 0.370818 9.91993 0.286681 9.85825 0.215557C9.79658 0.144432 9.71963 0.0881582 9.63316 0.0509353C9.54669 0.0137123 9.45293 -0.00349785 9.35888 0.000589449ZM4.91308 5.0128H8.02099L7.60473 7.5128H4.49682L4.91308 5.0128Z" fill="#838383"/>
</svg>
