<svg width="19" height="17" viewBox="0 0 19 17" fill="none" xmlns="http://www.w3.org/2000/svg">
<path fill-rule="evenodd" clip-rule="evenodd" d="M16.5919 1.56916C15.659 0.55737 14.3789 0.00012207 12.9873 0.00012207C11.947 0.00012207 10.9943 0.329 10.1556 0.977543C9.73242 1.30491 9.34895 1.70542 9.01086 2.17288C8.6729 1.70556 8.2893 1.30491 7.86597 0.977543C7.02741 0.329 6.07473 0.00012207 5.03446 0.00012207C3.64277 0.00012207 2.36259 0.55737 1.42972 1.56916C0.507971 2.56913 0.000213623 3.93524 0.000213623 5.41602C0.000213623 6.9401 0.568191 8.33522 1.78761 9.80664C2.87846 11.1228 4.44628 12.459 6.26185 14.0062C6.8818 14.5346 7.58452 15.1335 8.31419 15.7714C8.50695 15.9403 8.7543 16.0332 9.01086 16.0332C9.26728 16.0332 9.51476 15.9403 9.70726 15.7717C10.4369 15.1336 11.1401 14.5344 11.7603 14.0058C13.5756 12.4589 15.1434 11.1229 16.2342 9.80651C17.4537 8.33523 18.0215 6.9401 18.0215 5.41589C18.0215 3.93525 17.5137 2.56914 16.5919 1.56918L16.5919 1.56916Z" fill="#915FFC"/>
</svg>
