<svg width="21" height="17" viewBox="0 0 21 17" fill="none" xmlns="http://www.w3.org/2000/svg">
<path d="M20.3628 7.79688L18.2908 6.07842V2.6415C18.2908 2.49829 18.1479 2.35509 18.005 2.35509H16.8619C16.6832 2.39089 16.5761 2.49829 16.5761 2.6415V4.68217L11.5389 0.529224C11.2174 0.242814 10.753 0.0996094 10.2886 0.0996094C9.78845 0.0996094 9.32404 0.242814 9.00252 0.529224L0.178621 7.79688C0.0714485 7.90428 0 8.04749 0 8.22649C0 8.3697 0.0357243 8.51291 0.107173 8.58451L0.50014 9.04992C0.571588 9.15733 0.75021 9.22893 0.928831 9.22893C1.07173 9.22893 1.1789 9.19313 1.28607 9.12153L2.28635 8.2981V14.9571C2.28635 15.6016 2.78649 16.1028 3.42953 16.1028H8.00224C8.60955 16.1028 9.10969 15.6016 9.14541 14.9571V11.2338H11.4318V14.9571C11.4318 15.6016 11.9319 16.1028 12.5749 16.1028H17.1477C17.755 16.1028 18.2551 15.6016 18.2908 14.9929V8.2981L19.2554 9.12153C19.3626 9.19313 19.4697 9.26473 19.6126 9.26473C19.7912 9.26473 19.9699 9.15733 20.077 9.04992L20.4343 8.58451C20.5057 8.51291 20.5772 8.3697 20.5772 8.22649C20.5772 8.04749 20.47 7.90428 20.3628 7.79688ZM16.5403 14.3843H13.1465V10.661C13.1108 10.0524 12.6107 9.55114 12.0034 9.51534H8.57383C7.93079 9.55114 7.43065 10.0524 7.43065 10.661V14.3843H4.00112V6.90185L10.2886 1.71067L16.5761 6.90185L16.5403 14.3843Z" fill="#7B7B7B"/>
</svg>
