<svg width="14" height="16" viewBox="0 0 14 16" fill="none" xmlns="http://www.w3.org/2000/svg">
<path d="M12.1562 6.5004H11.2188V5.14984C11.2188 2.80104 9.34375 0.892641 7 0.863281C4.65625 0.863281 2.78125 2.77168 2.78125 5.09112V6.5004H1.84375C1.05273 6.5004 0.4375 7.14632 0.4375 7.90968V14.4863C0.4375 15.279 1.05273 15.8956 1.84375 15.8956H12.1562C12.918 15.8956 13.5625 15.279 13.5625 14.4863V7.90968C13.5625 7.14632 12.918 6.5004 12.1562 6.5004ZM4.1875 5.09112C4.1875 3.5644 5.44727 2.27256 7 2.27256C8.52344 2.27256 9.8125 3.5644 9.8125 5.09112V6.5004H4.1875V5.09112ZM12.1562 14.4863H1.84375V7.90968H12.1562V14.4863Z" fill="#7B7B7B"/>
</svg>
