<svg width="232" height="47" viewBox="0 0 232 47" fill="none" xmlns="http://www.w3.org/2000/svg">
<path fill-rule="evenodd" clip-rule="evenodd" d="M22.5941 26.9686H22.3398H20.2389C19.3844 26.9667 18.53 26.9595 17.6758 26.9375C17.0893 26.9224 16.4876 26.7805 15.9279 26.5919C14.3899 26.0734 13.1663 25.0996 12.1738 23.8272C11.3057 22.7145 10.8129 21.4338 10.6581 20.0487C10.57 19.2593 10.5914 18.4543 10.7397 17.6519C10.9434 16.5482 11.3256 15.5224 11.9766 14.6249C13.6383 12.3344 15.884 11.1396 18.7425 11.1411C20.9206 11.1429 23.0993 11.1426 25.2778 11.1431H40.3968V11.1484C40.7428 11.1508 41.0941 11.1896 41.4323 11.2619C42.867 11.568 43.7813 13.0456 43.3795 14.5436C43.063 15.7239 42.0161 16.5267 40.7395 16.5315C40.6247 16.5319 40.5109 16.5301 40.3968 16.5287V16.5315H29.9485C27.3689 16.5315 25.2778 18.6226 25.2778 21.2021V26.9686L22.5941 26.9686ZM53.6185 10.5032C53.2699 9.15651 52.7343 7.90291 51.9747 6.74843C50.6217 4.69185 48.8398 3.09902 46.6542 1.96504C45.5652 1.39992 44.4035 1.02852 43.1958 0.83845C42.0844 0.66346 40.961 0.6056 39.8311 0.61109C38.2921 0.61927 36.7532 0.61616 35.2143 0.61304C33.2508 0.60895 31.2871 0.60468 29.3239 0.62372C27.9187 0.63764 26.513 0.6247 25.108 0.61176C24.1287 0.60273 23.1496 0.59375 22.1709 0.59375C20.3711 0.59375 18.5721 0.6239 16.7737 0.74042C16.0845 0.78528 15.3935 0.87555 14.7148 1.00421C13.5639 1.2218 12.4495 1.56689 11.3633 2.01709C9.94956 2.6026 8.63804 3.36115 7.43388 4.29199C5.58699 5.7193 4.00477 7.39874 2.75056 9.37982C1.72612 10.9977 0.960064 12.7271 0.540874 14.5934C0.326944 15.5457 0.195294 16.5203 0.0882938 17.4917C-0.0928862 19.1408 0.0199338 20.7861 0.288704 22.4193C0.378734 22.9662 0.532444 23.5025 0.657724 24.0441C0.991094 25.4867 1.57667 26.834 2.30729 28.1096C3.67317 30.4947 5.49613 32.4839 7.70271 34.119C8.91722 35.0192 10.2263 35.7596 11.6333 36.3127C12.7681 36.7588 13.9289 37.1296 15.1484 37.269C16.157 37.3843 17.1651 37.5509 18.1767 37.5814C19.4768 37.6207 20.7786 37.6097 22.0804 37.6014V37.6094H25.2775V42.4117L29.8534 46.2727V45.5289V23.5652C29.8534 22.1818 30.984 21.0654 32.367 21.0836C35.6839 21.1266 39.743 21.1874 40.678 21.1744C41.2015 21.1668 41.73 21.1072 42.2451 21.0127C43.2685 20.8254 44.1955 20.4056 45.0346 19.7809C46.9717 18.3382 48.0097 16.4098 48.0789 14.0051C48.0991 13.2899 47.9374 12.5565 47.7728 11.8517C47.3982 10.2446 46.4095 9.03497 45.1368 8.04046C43.8218 7.01293 42.2994 6.5935 40.6522 6.59252C33.707 6.58867 26.7623 6.5899 19.8173 6.59215C19.6461 6.59215 19.4749 6.59087 19.3038 6.58977C18.3727 6.58293 17.441 6.57592 16.5233 6.77831C15.7559 6.94787 14.9675 7.06902 14.2338 7.33648C11.8793 8.1947 10.0008 9.71777 8.47441 11.6816C7.25548 13.2497 6.51607 15.0367 6.17052 16.9875C6.15273 17.0879 6.15078 17.1913 6.15352 17.2969C6.1591 17.5169 6.12273 17.7346 6.07982 17.9503C6.07442 17.9769 6.07054 18.0038 6.06819 18.0308C6.04845 18.2719 6.05119 18.5154 6.05394 18.7576C6.06471 19.702 6.05296 20.6412 6.25169 21.5815C6.43364 22.4413 6.66429 23.2798 7.02018 24.0746C8.07444 26.4301 9.73667 28.2762 11.8778 29.6953C13.6567 30.8743 15.617 31.4575 17.7025 31.5906V31.5917L17.7257 31.5919C17.9797 31.6077 18.2354 31.6183 18.4931 31.6208C20.001 31.6368 21.5092 31.6266 23.0172 31.6237L25.2774 31.6276V32.9484H22.0804V32.978C21.0552 32.9779 20.0301 32.9775 19.0049 32.9785C17.6864 32.98 16.3807 32.8873 15.0908 32.5751C13.956 32.3005 12.8818 31.8866 11.864 31.3244C10.0133 30.3019 8.49122 28.9039 7.23396 27.214C6.29057 25.9463 5.58037 24.5558 5.18443 23.0231C4.99122 22.2741 4.86888 21.5057 4.7393 20.742C4.66752 20.3206 4.61946 19.8915 4.6125 19.4647C4.60661 19.0818 4.69621 18.6976 4.70051 18.3137C4.71189 17.2167 4.90116 16.1508 5.20393 15.1006C5.48912 14.1097 5.88462 13.1662 6.40074 12.2731C7.44594 10.4638 8.8423 8.97108 10.5197 7.73902C11.8826 6.73743 13.3945 6.04969 15.0211 5.64179C16.1629 5.35517 17.3406 5.23578 18.5182 5.23609C20.6436 5.23676 22.7687 5.23652 24.8942 5.23609C29.9432 5.23511 34.9923 5.23481 40.0413 5.2461C40.922 5.24805 41.8066 5.34101 42.6815 5.45307C43.1613 5.51472 43.6474 5.65284 44.0909 5.84711C45.5273 6.47504 46.742 7.40723 47.6976 8.65863C48.516 9.73047 49.0871 10.9228 49.2503 12.2673C49.3437 13.0347 49.3391 13.8171 49.3343 14.5926C49.3275 15.6882 49.0042 16.712 48.5186 17.6841C47.722 19.2791 46.5228 20.4978 44.9952 21.4033C44.2477 21.8464 43.4384 22.1506 42.5929 22.3067C41.925 22.43 41.2351 22.4628 40.5542 22.4742C39.7518 22.488 38.9491 22.4857 38.1464 22.4834C37.5337 22.4815 36.9553 22.4121 36.3426 22.4175C36.1446 22.4191 35.7495 22.4012 35.3228 22.3801C34.2757 22.3281 32.6932 22.3043 32.2885 22.5914C30.8236 23.631 31.2587 25.1201 31.2267 27.4505C31.2028 29.2106 31.1916 30.9709 31.1967 32.7312H31.1837V46.127V46.2727L35.7598 42.4117V37.5472C35.7655 37.5467 35.7708 37.5458 35.7766 37.5451C35.7887 37.3949 35.8067 37.2782 35.8057 37.1615C35.8004 35.8904 35.785 34.6196 35.7854 33.3488C35.7861 31.8389 35.8361 30.3279 35.7949 28.8192C35.7663 27.7615 36.6153 27.0774 37.5094 27.1173L40.3265 27.1158C41.3574 27.1158 42.3872 27.1158 43.4148 26.9072C44.4652 26.6937 45.4844 26.4038 46.4379 25.9353C48.9464 24.7028 50.9221 22.877 52.3404 20.461C53.1986 18.9987 53.7149 17.411 53.9234 15.7394C54.1423 13.9832 54.0666 12.2352 53.6184 10.5032L53.6185 10.5032Z" fill="url(#paint0_linear_1_55)"/>
<path d="M74.868 32.9057C73.0133 32.9057 71.332 32.507 69.824 31.7097C68.3333 30.895 67.1547 29.777 66.288 28.3557C65.4387 26.917 65.014 25.2964 65.014 23.4937C65.014 21.691 65.4387 20.079 66.288 18.6577C67.1547 17.219 68.3333 16.101 69.824 15.3037C71.332 14.489 73.022 14.0817 74.894 14.0817C76.4713 14.0817 77.8927 14.359 79.158 14.9137C80.4407 15.4684 81.5153 16.2657 82.382 17.3057L79.678 19.8017C78.4473 18.3804 76.922 17.6697 75.102 17.6697C73.9753 17.6697 72.97 17.921 72.086 18.4237C71.202 18.909 70.5087 19.5937 70.006 20.4777C69.5207 21.3617 69.278 22.367 69.278 23.4937C69.278 24.6204 69.5207 25.6257 70.006 26.5097C70.5087 27.3937 71.202 28.087 72.086 28.5897C72.97 29.075 73.9753 29.3177 75.102 29.3177C76.922 29.3177 78.4473 28.5984 79.678 27.1597L82.382 29.6557C81.5153 30.713 80.4407 31.519 79.158 32.0737C77.8753 32.6284 76.4453 32.9057 74.868 32.9057ZM90.5044 18.3977C92.671 18.3977 94.335 18.9177 95.4964 19.9577C96.6577 20.9804 97.2384 22.5317 97.2384 24.6117V32.5937H93.4424V30.8517C92.6797 32.1517 91.2584 32.8017 89.1784 32.8017C88.1037 32.8017 87.1677 32.6197 86.3704 32.2557C85.5904 31.8917 84.9924 31.389 84.5764 30.7477C84.1604 30.1064 83.9524 29.3784 83.9524 28.5637C83.9524 27.2637 84.4377 26.241 85.4084 25.4957C86.3964 24.7504 87.913 24.3777 89.9584 24.3777H93.1824C93.1824 23.4937 92.9137 22.8177 92.3764 22.3497C91.839 21.8644 91.033 21.6217 89.9584 21.6217C89.213 21.6217 88.4764 21.743 87.7484 21.9857C87.0377 22.211 86.431 22.523 85.9284 22.9217L84.4724 20.0877C85.235 19.5504 86.145 19.1344 87.2024 18.8397C88.277 18.545 89.3777 18.3977 90.5044 18.3977ZM90.1924 30.0717C90.8857 30.0717 91.501 29.9157 92.0384 29.6037C92.5757 29.2744 92.957 28.7977 93.1824 28.1737V26.7437H90.4004C88.7364 26.7437 87.9044 27.2897 87.9044 28.3817C87.9044 28.9017 88.1037 29.3177 88.5024 29.6297C88.9184 29.9244 89.4817 30.0717 90.1924 30.0717ZM104.783 20.4517C105.269 19.7757 105.919 19.2644 106.733 18.9177C107.565 18.571 108.519 18.3977 109.593 18.3977V22.1417C109.143 22.107 108.839 22.0897 108.683 22.0897C107.522 22.0897 106.612 22.419 105.953 23.0777C105.295 23.719 104.965 24.6897 104.965 25.9897V32.5937H100.909V18.6057H104.783V20.4517ZM125.575 25.6517C125.575 25.7037 125.549 26.0677 125.497 26.7437H114.914C115.105 27.6104 115.556 28.295 116.267 28.7977C116.977 29.3004 117.861 29.5517 118.919 29.5517C119.647 29.5517 120.288 29.4477 120.843 29.2397C121.415 29.0144 121.943 28.6677 122.429 28.1997L124.587 30.5397C123.269 32.0477 121.345 32.8017 118.815 32.8017C117.237 32.8017 115.842 32.4984 114.628 31.8917C113.415 31.2677 112.479 30.4097 111.82 29.3177C111.162 28.2257 110.832 26.9864 110.832 25.5997C110.832 24.2304 111.153 22.9997 111.794 21.9077C112.453 20.7984 113.346 19.9404 114.472 19.3337C115.616 18.7097 116.89 18.3977 118.294 18.3977C119.664 18.3977 120.903 18.6924 122.013 19.2817C123.122 19.871 123.989 20.7204 124.613 21.8297C125.254 22.9217 125.575 24.1957 125.575 25.6517ZM118.321 21.4657C117.402 21.4657 116.631 21.7257 116.006 22.2457C115.382 22.7657 115.001 23.4764 114.862 24.3777H121.753C121.614 23.4937 121.233 22.7917 120.609 22.2717C119.985 21.7344 119.222 21.4657 118.321 21.4657ZM141.977 25.6517C141.977 25.7037 141.951 26.0677 141.899 26.7437H131.317C131.508 27.6104 131.958 28.295 132.669 28.7977C133.38 29.3004 134.264 29.5517 135.321 29.5517C136.049 29.5517 136.69 29.4477 137.245 29.2397C137.817 29.0144 138.346 28.6677 138.831 28.1997L140.989 30.5397C139.672 32.0477 137.748 32.8017 135.217 32.8017C133.64 32.8017 132.244 32.4984 131.031 31.8917C129.818 31.2677 128.882 30.4097 128.223 29.3177C127.564 28.2257 127.235 26.9864 127.235 25.5997C127.235 24.2304 127.556 22.9997 128.197 21.9077C128.856 20.7984 129.748 19.9404 130.875 19.3337C132.019 18.7097 133.293 18.3977 134.697 18.3977C136.066 18.3977 137.306 18.6924 138.415 19.2817C139.524 19.871 140.391 20.7204 141.015 21.8297C141.656 22.9217 141.977 24.1957 141.977 25.6517ZM134.723 21.4657C133.804 21.4657 133.033 21.7257 132.409 22.2457C131.785 22.7657 131.404 23.4764 131.265 24.3777H138.155C138.016 23.4937 137.635 22.7917 137.011 22.2717C136.387 21.7344 135.624 21.4657 134.723 21.4657ZM148.551 20.4517C149.037 19.7757 149.687 19.2644 150.501 18.9177C151.333 18.571 152.287 18.3977 153.361 18.3977V22.1417C152.911 22.107 152.607 22.0897 152.451 22.0897C151.29 22.0897 150.38 22.419 149.721 23.0777C149.063 23.719 148.733 24.6897 148.733 25.9897V32.5937H144.677V18.6057H148.551V20.4517ZM163.856 14.3937C165.468 14.3937 166.864 14.6624 168.042 15.1997C169.238 15.737 170.157 16.4997 170.798 17.4877C171.44 18.4757 171.76 19.6457 171.76 20.9977C171.76 22.3324 171.44 23.5024 170.798 24.5077C170.157 25.4957 169.238 26.2584 168.042 26.7957C166.864 27.3157 165.468 27.5757 163.856 27.5757H160.19V32.5937H155.978V14.3937H163.856ZM163.622 24.1437C164.888 24.1437 165.85 23.875 166.508 23.3377C167.167 22.783 167.496 22.003 167.496 20.9977C167.496 19.975 167.167 19.195 166.508 18.6577C165.85 18.103 164.888 17.8257 163.622 17.8257H160.19V24.1437H163.622ZM180.013 18.3977C182.18 18.3977 183.844 18.9177 185.005 19.9577C186.167 20.9804 186.747 22.5317 186.747 24.6117V32.5937H182.951V30.8517C182.189 32.1517 180.767 32.8017 178.687 32.8017C177.613 32.8017 176.677 32.6197 175.879 32.2557C175.099 31.8917 174.501 31.389 174.085 30.7477C173.669 30.1064 173.461 29.3784 173.461 28.5637C173.461 27.2637 173.947 26.241 174.917 25.4957C175.905 24.7504 177.422 24.3777 179.467 24.3777H182.691C182.691 23.4937 182.423 22.8177 181.885 22.3497C181.348 21.8644 180.542 21.6217 179.467 21.6217C178.722 21.6217 177.985 21.743 177.257 21.9857C176.547 22.211 175.94 22.523 175.437 22.9217L173.981 20.0877C174.744 19.5504 175.654 19.1344 176.711 18.8397C177.786 18.545 178.887 18.3977 180.013 18.3977ZM179.701 30.0717C180.395 30.0717 181.01 29.9157 181.547 29.6037C182.085 29.2744 182.466 28.7977 182.691 28.1737V26.7437H179.909C178.245 26.7437 177.413 27.2897 177.413 28.3817C177.413 28.9017 177.613 29.3177 178.011 29.6297C178.427 29.9244 178.991 30.0717 179.701 30.0717ZM199.44 31.9177C199.042 32.2124 198.548 32.4377 197.958 32.5937C197.386 32.7324 196.78 32.8017 196.138 32.8017C194.474 32.8017 193.183 32.377 192.264 31.5277C191.363 30.6784 190.912 29.4304 190.912 27.7837V22.0377H188.754V18.9177H190.912V15.5117H194.968V18.9177H198.452V22.0377H194.968V27.7317C194.968 28.321 195.116 28.7804 195.41 29.1097C195.722 29.4217 196.156 29.5777 196.71 29.5777C197.352 29.5777 197.898 29.4044 198.348 29.0577L199.44 31.9177ZM210.219 18.3977C211.952 18.3977 213.348 18.9177 214.405 19.9577C215.48 20.9977 216.017 22.5404 216.017 24.5857V32.5937H211.961V25.2097C211.961 24.1004 211.718 23.277 211.233 22.7397C210.748 22.185 210.046 21.9077 209.127 21.9077C208.104 21.9077 207.29 22.2284 206.683 22.8697C206.076 23.4937 205.773 24.4297 205.773 25.6777V32.5937H201.717V13.3017H205.773V20.0617C206.31 19.5244 206.96 19.117 207.723 18.8397C208.486 18.545 209.318 18.3977 210.219 18.3977ZM224.4 32.8017C223.238 32.8017 222.103 32.663 220.994 32.3857C219.884 32.091 219 31.727 218.342 31.2937L219.694 28.3817C220.318 28.7804 221.072 29.1097 221.956 29.3697C222.84 29.6124 223.706 29.7337 224.556 29.7337C226.272 29.7337 227.13 29.309 227.13 28.4597C227.13 28.061 226.896 27.775 226.428 27.6017C225.96 27.4284 225.24 27.281 224.27 27.1597C223.126 26.9864 222.181 26.787 221.436 26.5617C220.69 26.3364 220.04 25.9377 219.486 25.3657C218.948 24.7937 218.68 23.979 218.68 22.9217C218.68 22.0377 218.931 21.2577 219.434 20.5817C219.954 19.8884 220.699 19.351 221.67 18.9697C222.658 18.5884 223.819 18.3977 225.154 18.3977C226.142 18.3977 227.121 18.5104 228.092 18.7357C229.08 18.9437 229.894 19.2384 230.536 19.6197L229.184 22.5057C227.953 21.8124 226.61 21.4657 225.154 21.4657C224.287 21.4657 223.637 21.587 223.204 21.8297C222.77 22.0724 222.554 22.3844 222.554 22.7657C222.554 23.199 222.788 23.5024 223.256 23.6757C223.724 23.849 224.469 24.0137 225.492 24.1697C226.636 24.3604 227.572 24.5684 228.3 24.7937C229.028 25.0017 229.66 25.3917 230.198 25.9637C230.735 26.5357 231.004 27.333 231.004 28.3557C231.004 29.2224 230.744 29.9937 230.224 30.6697C229.704 31.3457 228.941 31.8744 227.936 32.2557C226.948 32.6197 225.769 32.8017 224.4 32.8017Z" fill="black"/>
<defs>
<linearGradient id="paint0_linear_1_55" x1="-14.4655" y1="29.6202" x2="35.6441" y2="62.9067" gradientUnits="userSpaceOnUse">
<stop stop-color="#00F9FF"/>
<stop offset="1" stop-color="#0078FF"/>
<stop offset="1" stop-color="#00B8FF"/>
</linearGradient>
</defs>
</svg>
