<svg width="48" height="48" viewBox="0 0 48 48" fill="none" xmlns="http://www.w3.org/2000/svg">
<circle cx="24" cy="24" r="24" fill="#F5F5F5"/>
<circle cx="23.9995" cy="23.9995" r="22.1538" fill="#FCFCFC"/>
<g clip-path="url(#clip0_1_234)">
<path d="M39.0798 18.7451C38.8848 17.9718 38.5628 17.2363 38.1268 16.5684C37.357 15.392 36.294 14.4364 35.0425 13.7957C34.414 13.4711 33.7371 13.2506 33.038 13.1428C32.3924 13.0465 31.7401 13.0025 31.0874 13.0112C30.195 13.016 29.3026 13.0141 28.4102 13.0112C27.272 13.0089 26.1339 13.0063 24.9957 13.0175C24.181 13.0257 23.3663 13.0175 22.5516 13.0104C21.9839 13.0052 21.4164 13 20.849 13C19.8057 13 18.7631 13.0175 17.7205 13.0852C15.7525 13.2237 13.8691 13.9399 12.3063 15.144C11.2355 15.9603 10.3167 16.9586 9.5919 18.0933C8.99352 19.0192 8.56012 20.0417 8.31094 21.1155C8.19242 21.6702 8.10478 22.2311 8.04844 22.7955C7.95652 23.7484 7.99555 24.7095 8.16444 25.6519C8.2165 25.969 8.30574 26.2799 8.37825 26.5937C8.57957 27.422 8.9018 28.2161 9.33459 28.9504C10.1227 30.317 11.188 31.5037 12.4621 32.434C13.1622 32.9565 13.9284 33.3841 14.7406 33.7057C15.3927 33.9787 16.0777 34.1651 16.7782 34.2601C17.3628 34.327 17.9473 34.4233 18.5337 34.4412C19.2874 34.4639 20.0418 34.4575 20.7966 34.4527V34.4572H22.6498V37.2411L25.3024 39.4791V26.3163C25.3024 26.1258 25.3402 25.9372 25.4136 25.7614C25.487 25.5856 25.5947 25.4262 25.7302 25.2923C25.8658 25.1585 26.0266 25.0529 26.2033 24.9817C26.3801 24.9106 26.5691 24.8752 26.7596 24.8777C28.6824 24.9026 31.0357 24.938 31.5774 24.9305C31.8823 24.9245 32.1861 24.8932 32.4858 24.8368C33.0731 24.7279 33.6268 24.4835 34.1029 24.1229C34.6413 23.7449 35.0821 23.2444 35.3889 22.6625C35.6957 22.0807 35.8598 21.4342 35.8676 20.7764C35.8616 20.3545 35.802 19.9351 35.6902 19.5282C35.4559 18.6353 34.9151 17.8533 34.1624 17.3188C33.4175 16.7498 32.4999 16.4535 31.5629 16.4796C27.537 16.4774 23.5112 16.4774 19.4855 16.4796C19.3863 16.4796 19.287 16.4796 19.1881 16.4796C18.6484 16.4553 18.1077 16.4919 17.5762 16.5889C17.1272 16.6676 16.6839 16.7756 16.2491 16.9124C14.9181 17.415 13.7593 18.2893 12.9105 19.4312C12.2185 20.3307 11.7597 21.3873 11.5749 22.5069C11.5655 22.5662 11.5621 22.6262 11.5648 22.6862C11.5646 22.8136 11.5503 22.9407 11.5221 23.0651C11.5189 23.0805 11.5167 23.0962 11.5154 23.1119C11.5038 23.2517 11.5057 23.3926 11.5072 23.5332C11.491 24.081 11.5294 24.629 11.6217 25.1692C11.7187 25.6655 11.8682 26.15 12.0679 26.6145C12.6722 27.9498 13.6502 29.0814 14.8838 29.8729C15.8916 30.5329 17.0571 30.9122 18.2604 30.9716H18.2737C18.4225 30.9809 18.5693 30.9869 18.7199 30.9884C19.5941 30.9977 20.4675 30.9917 21.3425 30.9884L22.6528 30.9906V31.7562H20.7996V31.7733C20.2047 31.7733 19.6103 31.7733 19.0167 31.7733C18.254 31.7864 17.4925 31.7079 16.7485 31.5394C16.0952 31.3827 15.466 31.1389 14.8778 30.8144C13.8218 30.223 12.9063 29.4102 12.194 28.4317C11.6427 27.7072 11.2385 26.8818 11.0041 26.0021C10.8926 25.5678 10.8212 25.1228 10.7461 24.6799C10.7025 24.4354 10.6777 24.1879 10.6717 23.9396C10.6683 23.7165 10.72 23.4934 10.7226 23.2725C10.735 22.6413 10.8332 22.0148 11.0145 21.41C11.178 20.8374 11.411 20.287 11.7083 19.771C12.3118 18.7377 13.1251 17.8423 14.0959 17.1426C14.8778 16.5705 15.7644 16.1574 16.7054 15.9267C17.3689 15.7654 18.0498 15.6865 18.7326 15.6917C19.9646 15.6917 21.1966 15.6917 22.4286 15.6917C25.3554 15.6917 28.2822 15.6937 31.209 15.6976C31.7211 15.7058 32.2323 15.7459 32.7394 15.8177C33.0215 15.855 33.2969 15.9318 33.5574 16.046C34.3831 16.4002 35.1032 16.9616 35.6482 17.6758C36.1318 18.2789 36.4428 19.0018 36.5484 19.7677C36.5932 20.2155 36.6094 20.6657 36.5971 21.1155C36.5802 21.7415 36.4183 22.355 36.1242 22.9078C35.6696 23.8114 34.9593 24.5614 34.0817 25.0644C33.6521 25.3197 33.1806 25.497 32.6892 25.5879C32.2987 25.6527 31.9034 25.6852 31.5075 25.685C31.0424 25.6928 30.578 25.6917 30.1117 25.6902C29.7566 25.6902 29.4212 25.6489 29.0661 25.653C28.9512 25.653 28.7222 25.6437 28.4749 25.6314C27.8681 25.6013 26.9504 25.5875 26.7161 25.7538C25.8669 26.3565 26.1193 27.2195 26.1008 28.5704C26.0869 29.5907 26.081 30.6111 26.0833 31.6316H26.0758V39.4813L28.7285 37.2433V34.4233H28.7381C28.7452 34.3363 28.7556 34.2687 28.7549 34.2002C28.7519 33.4633 28.743 32.7267 28.743 31.9901C28.743 31.1148 28.7724 30.2388 28.7486 29.3642C28.7424 29.2324 28.7639 29.1008 28.8118 28.9778C28.8597 28.8548 28.9328 28.7432 29.0264 28.6503C29.1201 28.5573 29.2322 28.485 29.3555 28.4381C29.4789 28.3911 29.6107 28.3706 29.7425 28.3778H31.3755C31.9749 28.3978 32.5747 28.3573 33.1659 28.2569C33.7718 28.1451 34.3608 27.9558 34.9183 27.6936C36.3501 27.0015 37.5416 25.8962 38.3392 24.5204C38.8294 23.6806 39.1418 22.7489 39.2568 21.7834C39.3918 20.7686 39.3318 19.7374 39.0798 18.7451ZM21.0956 28.2911H19.7302C19.2349 28.2911 18.7396 28.2859 18.2429 28.2733C17.8971 28.2567 17.5557 28.1892 17.2296 28.0729C16.3605 27.7678 15.6026 27.2097 15.0533 26.4703C14.5608 25.837 14.2563 25.0779 14.1747 24.2798C14.122 23.8168 14.1379 23.3486 14.2219 22.8903C14.3258 22.2589 14.5709 21.6591 14.9388 21.1356C15.3717 20.4981 15.9575 19.9792 16.6426 19.6264C17.3278 19.2737 18.0904 19.0982 18.8609 19.1162C20.1234 19.1162 21.3861 19.1162 22.6491 19.1162H31.4131V19.1192C31.6148 19.1208 31.8159 19.1429 32.0132 19.185C32.215 19.2309 32.4054 19.3174 32.5727 19.4392C32.74 19.561 32.8808 19.7156 32.9864 19.8936C33.092 20.0716 33.1603 20.2692 33.1871 20.4744C33.2138 20.6796 33.1985 20.8882 33.1421 21.0873C33.0521 21.4226 32.8526 21.7182 32.5753 21.9271C32.298 22.136 31.9588 22.2461 31.6116 22.24C31.5451 22.24 31.4793 22.24 31.4131 22.24H25.3586C25.003 22.24 24.651 22.31 24.3225 22.4461C23.994 22.5822 23.6955 22.7816 23.4441 23.033C23.1927 23.2845 22.9933 23.583 22.8573 23.9115C22.7212 24.24 22.6513 24.5921 22.6513 24.9476V28.2904L21.0956 28.2911Z" fill="url(#paint0_linear_1_234)"/>
</g>
<defs>
<linearGradient id="paint0_linear_1_234" x1="8.56389" y1="16.3631" x2="37.6074" y2="35.6726" gradientUnits="userSpaceOnUse">
<stop stop-color="#00F9FF"/>
<stop offset="1" stop-color="#00B8FF"/>
</linearGradient>
<clipPath id="clip0_1_234">
<rect width="31.3266" height="27.6035" fill="white" transform="translate(8 13)"/>
</clipPath>
</defs>
</svg>
