<svg width="18" height="14" viewBox="0 0 18 14" fill="none" xmlns="http://www.w3.org/2000/svg">
<path d="M17.1 0.486328H0.9C0.39375 0.486328 0 0.922534 0 1.4169V12.5838C0 13.1072 0.39375 13.5144 0.9 13.5144H17.1C17.5781 13.5144 18 13.1072 18 12.5838V1.4169C18 0.922534 17.5781 0.486328 17.1 0.486328ZM16.65 12.1185H1.35V1.88219H16.65V12.1185ZM8.325 8.86149H10.575C10.6875 8.86149 10.8 8.77425 10.8 8.62885V7.69827C10.8 7.58195 10.6875 7.46563 10.575 7.46563H8.325C8.18437 7.46563 8.1 7.58195 8.1 7.69827V8.62885C8.1 8.77425 8.18437 8.86149 8.325 8.86149ZM15.075 7.46563H12.825C12.6844 7.46563 12.6 7.58195 12.6 7.69827V8.62885C12.6 8.77425 12.6844 8.86149 12.825 8.86149H15.075C15.1875 8.86149 15.3 8.77425 15.3 8.62885V7.69827C15.3 7.58195 15.1875 7.46563 15.075 7.46563ZM8.325 6.53506H15.075C15.1875 6.53506 15.3 6.44781 15.3 6.30241V5.37184C15.3 5.25552 15.1875 5.1392 15.075 5.1392H8.325C8.18437 5.1392 8.1 5.25552 8.1 5.37184V6.30241C8.1 6.44781 8.18437 6.53506 8.325 6.53506ZM3.76875 7.0585L4.95 7.40747C5.09062 7.43655 5.175 7.52379 5.175 7.64011C5.175 7.78551 5.03437 7.90184 4.86562 7.90184H4.13438C4.02187 7.90184 3.90937 7.87276 3.79688 7.8146C3.7125 7.75643 3.6 7.75643 3.54375 7.84368L3.20625 8.22172C3.12187 8.30896 3.12187 8.45436 3.23438 8.54161C3.45937 8.68701 3.74062 8.80333 4.05 8.80333V9.09413C4.05 9.23954 4.13438 9.32678 4.275 9.32678H4.725C4.8375 9.32678 4.95 9.23954 4.95 9.09413V8.80333C5.56875 8.77425 6.075 8.27988 6.075 7.64011C6.075 7.11666 5.70937 6.65138 5.20312 6.50598L4.02187 6.15701C3.88125 6.12793 3.825 6.04069 3.825 5.92437C3.825 5.77897 3.9375 5.66264 4.10625 5.66264H4.8375C4.95 5.66264 5.0625 5.69172 5.175 5.74989C5.25938 5.80805 5.37187 5.80805 5.42812 5.7208L5.76562 5.34276C5.85 5.25552 5.85 5.11012 5.7375 5.02287C5.5125 4.87747 5.23125 4.76115 4.95 4.76115V4.44127C4.95 4.32494 4.8375 4.20862 4.725 4.20862H4.275C4.13438 4.20862 4.05 4.32494 4.05 4.44127V4.76115C3.40312 4.79023 2.925 5.2846 2.925 5.92437C2.925 6.44781 3.2625 6.9131 3.76875 7.0585Z" fill="#7B7B7B"/>
</svg>
