<svg width="11" height="11" viewBox="0 0 11 11" fill="none" xmlns="http://www.w3.org/2000/svg">
<path d="M10.5972 1.22461L9.78073 0.408203C9.52291 0.150391 9.15766 0 8.8139 0C8.47014 0 8.1049 0.150391 7.84708 0.408203L0.26288 7.99219L0.00506048 10.4414C-0.0379095 10.7422 0.198425 11 0.499215 11C0.5207 11 0.542185 11 0.56367 11L3.01296 10.7422L10.5972 3.1582C11.1343 2.62109 11.1343 1.76172 10.5972 1.22461ZM2.54029 9.75391L1.10079 9.9043L1.25119 8.46484L6.21422 3.48047L6.88025 2.81445L8.19084 4.125L7.5248 4.79102L2.54029 9.75391ZM9.86667 2.42773L8.92133 3.39453L7.61074 2.08398L8.57757 1.13867C8.66351 1.05273 8.77093 1.03125 8.8139 1.03125C8.85687 1.03125 8.9643 1.05273 9.05024 1.13867L9.86667 1.95508C9.99558 2.08398 9.99558 2.29883 9.86667 2.42773Z" fill="#727272"/>
</svg>
