<svg width="12" height="14" viewBox="0 0 12 14" fill="none" xmlns="http://www.w3.org/2000/svg">
<path d="M6 1C2.68555 1 0 3.68555 0 7C0 10.3145 2.68555 13 6 13C9.31445 13 12 10.3145 12 7C12 3.68555 9.31445 1 6 1ZM6 2C8.76172 2 11 4.23828 11 7C11 9.76172 8.76172 12 6 12C3.23828 12 1 9.76172 1 7C1 4.23828 3.23828 2 6 2ZM6 3.90625C5.9082 3.90625 5.83203 3.9043 5.75 3.92188C5.66797 3.93945 5.5918 3.98438 5.53125 4.03125C5.4707 4.07812 5.42578 4.14258 5.39062 4.21875C5.35547 4.29492 5.34375 4.38477 5.34375 4.5C5.34375 4.61328 5.35547 4.70312 5.39062 4.78125C5.42578 4.85938 5.4707 4.92188 5.53125 4.96875C5.5918 5.01562 5.66797 5.04297 5.75 5.0625C5.83203 5.08203 5.9082 5.09375 6 5.09375C6.08984 5.09375 6.18555 5.08203 6.26562 5.0625C6.3457 5.04297 6.4082 5.01562 6.46875 4.96875C6.5293 4.92188 6.57422 4.85938 6.60938 4.78125C6.64453 4.70508 6.67188 4.61328 6.67188 4.5C6.67188 4.38477 6.64453 4.29492 6.60938 4.21875C6.57422 4.14258 6.5293 4.07812 6.46875 4.03125C6.4082 3.98438 6.3457 3.93945 6.26562 3.92188C6.18555 3.9043 6.08984 3.90625 6 3.90625ZM5.39062 5.57812V10.0625H6.60938V5.57812H5.39062Z" fill="#838383"/>
</svg>
