<svg width="21" height="22" viewBox="0 0 21 22" fill="none" xmlns="http://www.w3.org/2000/svg">
<path fill-rule="evenodd" clip-rule="evenodd" d="M7.58954 3.51292C6.237 3.51292 4.96638 4.03927 4.01177 4.99503C3.05603 5.94965 2.52966 7.22026 2.52966 8.57281C2.52966 9.90504 3.06986 11.2087 4.01177 12.1495C4.96638 13.1052 6.237 13.6316 7.58954 13.6316C8.92177 13.6316 10.2254 13.0914 11.1662 12.1495C12.1081 11.2087 12.6483 9.90505 12.6483 8.57281C12.6483 7.22024 12.1219 5.94963 11.1662 4.99503C10.2254 4.05312 8.92177 3.51292 7.58954 3.51292ZM18.9593 21.2056C18.629 21.2057 18.316 21.0795 18.0779 20.8505L11.9867 14.7592C10.8515 15.5665 9.51611 16.0455 8.12656 16.1446C7.94946 16.1571 7.76964 16.1634 7.59209 16.1634C6.38538 16.1634 5.1807 15.8711 4.10825 15.3182C2.87081 14.6795 1.8332 13.7128 1.10762 12.5224C0.383011 11.3337 1.14441e-05 9.96819 1.14441e-05 8.57353C1.14441e-05 7.38405 0.284211 6.19529 0.821901 5.13576C1.35962 4.07731 2.1516 3.14678 3.11223 2.44474C4.07291 1.74265 5.20025 1.27109 6.3724 1.08102C6.77288 1.01608 7.18159 0.983154 7.58719 0.983154C8.37148 0.983154 9.1485 1.10417 9.89668 1.34284C11.0288 1.70436 12.0743 2.33654 12.9201 3.171C13.766 4.00559 14.412 5.0432 14.7881 6.17165C15.1642 7.29871 15.27 8.51581 15.0943 9.69138C14.92 10.8665 14.4634 12.0002 13.7738 12.9698L19.8662 19.0621C20.0987 19.3027 20.2248 19.6188 20.2214 19.9523C20.2191 20.2857 20.0877 20.5994 19.8514 20.8357C19.6163 21.0708 19.3025 21.2022 18.9681 21.2056L18.9593 21.2056Z" fill="#1A202C"/>
</svg>
