<svg width="16" height="18" viewBox="0 0 16 18" fill="none" xmlns="http://www.w3.org/2000/svg">
<path d="M10.5575 10.3421C9.57936 10.3421 9.14087 10.8745 7.55556 10.8745C5.93651 10.8745 5.49802 10.3421 4.51984 10.3421C2.02381 10.3421 0 12.3718 0 14.8341V15.666C0 16.5644 0.708333 17.2632 1.61905 17.2632H13.4921C14.369 17.2632 15.1111 16.5644 15.1111 15.666V14.8341C15.1111 12.3718 13.0536 10.3421 10.5575 10.3421ZM13.4921 15.666H1.61905V14.8341C1.61905 13.237 2.90079 11.9392 4.51984 11.9392C5.02579 11.9392 5.80159 12.4716 7.55556 12.4716C9.27579 12.4716 10.0516 11.9392 10.5575 11.9392C12.1766 11.9392 13.4921 13.237 13.4921 14.8341V15.666ZM7.55556 9.80967C10.2202 9.80967 12.4127 7.68009 12.4127 5.01812C12.4127 2.38942 10.2202 0.226562 7.55556 0.226562C4.85714 0.226562 2.69841 2.38942 2.69841 5.01812C2.69841 7.68009 4.85714 9.80967 7.55556 9.80967ZM7.55556 1.82375C9.30952 1.82375 10.7936 3.28783 10.7936 5.01812C10.7936 6.78167 9.30952 8.21249 7.55556 8.21249C5.76786 8.21249 4.31746 6.78167 4.31746 5.01812C4.31746 3.28783 5.76786 1.82375 7.55556 1.82375Z" fill="#7B7B7B"/>
</svg>
