<svg width="16" height="17" viewBox="0 0 16 17" fill="none" xmlns="http://www.w3.org/2000/svg">
<path fill-rule="evenodd" clip-rule="evenodd" d="M8.3831 0.00124552C5.94088 0.00124552 3.95393 1.98816 3.95393 4.43039C3.95393 6.87262 5.94088 8.85953 8.3831 8.85953C10.8254 8.85953 12.8123 6.87262 12.8123 4.43039C12.8123 1.98816 10.8254 0.00124552 8.3831 0.00124552Z" fill="#FFCC00"/>
<path fill-rule="evenodd" clip-rule="evenodd" d="M13.8924 11.7546C12.6797 10.5234 11.072 9.84538 9.36552 9.84538H7.39683C5.69036 9.84538 4.08266 10.5234 2.86996 11.7546C1.66318 12.9796 0.998582 14.5967 0.998582 16.3082C0.998582 16.5799 1.21895 16.8002 1.49075 16.8002H15.2716C15.5434 16.8002 15.7638 16.5799 15.7638 16.3082C15.7638 14.5967 15.0992 12.9796 13.8924 11.7546H13.8924Z" fill="#FFCC00"/>
</svg>
